<?xml version="1.0" encoding="utf-8"?>
<!-- Generator: Adobe Illustrator 22.0.1, SVG Export Plug-In . SVG Version: 6.00 Build 0)  -->
<svg version="1.1" id="レイヤー_1" xmlns="http://www.w3.org/2000/svg" xmlns:xlink="http://www.w3.org/1999/xlink" x="0px"
	 y="0px" viewBox="0 0 502.2 101.8" style="enable-background:new 0 0 502.2 101.8;" xml:space="preserve">
<style type="text/css">
	.st0{fill:#FFFFFF;stroke:#231815;stroke-width:0.5;stroke-miterlimit:10;}
	.st1{fill:#231815;stroke:#231815;stroke-width:0.5;stroke-miterlimit:10;}
</style>
<title>Fm-index-logo</title>
<g>
	<g>
		<path class="st0" d="M9.1,22c0.4-1.6,1-3.2,1.7-4.7c1.8-4.5,5.1-8.3,9.3-10.7c4.5-2.4,10.4-4.9,15.6-5.4S46-0.5,52.4,1
			c5.4,1.2,7.6,1.8,11.5,5.6c0,0,13.3-5.3,24.5-3.5c1.5,0.1,3,0.6,4.4,1.4c2.1,1.3-0.7,4.3-0.7,4.3s-11.8,8.5-12.7,12.1
			c3.7,5.6,5.9,12.1,6.3,18.8c0.4,10.6-4,21.3-4,21.3S73.5,75.2,67,77.8c0,0,8.8,9.5-0.1,22.4c0,0,1.2-3.6-2.6-9.9
			c-2.3-4-6.3-6.8-10.8-7.6c-1.4-0.2-7.9-1.1-10.3,1.4c0,0,4.9-6.8,9.2-8.1s7.4-1.3,9.1-0.7c0,0,2.8-8,2.8-11.3s-0.7-11.3-2.7-14.6
			s-4.3-8.7-6.2-9.1c-1.7,2.2-2.9,4.7-3.6,7.3c0,0-1,2.5-1.7,4.7s-1.5,2.1-2.6,1.9s-3.8-6.3-4.1-8.1s-1.5-9.7-1.7-11.8
			c0,0-2-0.3-8.2-0.9S23.4,33.6,19,34S5.2,36,3,35.6c-1.1,0-2-0.5-2.6-1.4C-0.9,32,9.1,22,9.1,22z"/>
		<g>
			<path class="st0" d="M115,89.1V14.5h31.4v8.4h-23.7v25.5h22.7v8.4h-22.7v32.3C122.7,89.1,115,89.1,115,89.1z"/>
			<path class="st0" d="M199.8,42.4c-2.2,0-4.4,0.9-5.9,2.5c-1.9,1.8-3.5,3.8-4.8,6.1c0.5,3.3,0.8,6.6,0.8,9.9v28.3h-7.5v-28
				c0-2.5-0.1-5.1-0.4-7.6c-0.2-2-0.7-4-1.4-5.9c-0.6-1.5-1.5-2.8-2.7-3.9c-1.2-0.9-2.7-1.4-4.2-1.4c-2.2,0-4.3,0.9-5.9,2.4
				c-1.6,1.4-3,3.1-4.1,4.9v39.5h-7.5V35.3h7.2v7.8c1.3-2.6,3.1-4.8,5.4-6.6c2.1-1.6,4.7-2.4,7.4-2.4c2.7-0.1,5.3,0.9,7.1,2.8
				c2.1,2.2,3.6,4.9,4.4,7.7c1.4-3,3.4-5.7,6-7.8c2.4-1.8,5.4-2.8,8.4-2.7c2.3,0,4.6,0.7,6.4,2.1c1.9,1.6,3.4,3.6,4.3,5.8
				c1.2,2.7,2,5.6,2.5,8.5c0.5,3.4,0.8,6.8,0.8,10.2V89h-7.5V61c0-2.5-0.1-5.1-0.4-7.6c-0.2-2-0.7-4-1.4-5.9
				c-0.6-1.5-1.5-2.8-2.7-3.9C202.8,42.9,201.3,42.4,199.8,42.4z"/>
			<path class="st0" d="M278.8,69.7c0,2.9-0.5,5.9-1.5,8.6c-0.9,2.4-2.4,4.6-4.2,6.5c-1.7,1.8-3.8,3.2-6.2,4.1c-2.4,1-5,1.5-7.7,1.5
				c-2.8,0-5.6-0.4-8.3-1.1s-5.4-1.8-7.7-3.3l1.5-8.2c2.1,1.3,4.4,2.4,6.8,3.1c2.4,0.8,4.9,1.2,7.5,1.2c3.3,0.1,6.4-1,8.8-3.1
				c2.2-2.1,3.4-5,3.3-8.9c0.1-1.9-0.3-3.8-0.9-5.6c-0.6-1.5-1.5-2.9-2.6-4.1c-1.1-1.3-2.5-2.4-3.9-3.3c-1.5-1-3.1-2-4.7-3
				c-1.9-1.2-3.7-2.5-5.5-3.8s-3.3-2.8-4.7-4.5s-2.5-3.7-3.2-5.7c-0.9-2.4-1.3-4.9-1.2-7.5c-0.1-2.9,0.4-5.8,1.3-8.5
				c0.8-2.3,2-4.4,3.7-6.2c1.5-1.6,3.5-2.9,5.6-3.7c2.3-0.8,4.7-1.3,7.2-1.2c5.2,0,10.3,1.6,14.5,4.5l-1.4,8.2
				c-1.9-1.3-3.9-2.4-6.1-3.1c-2.2-0.8-4.6-1.2-7-1.2c-6.7,0-10.1,3.5-10.1,10.5c0,1.4,0.1,2.8,0.5,4.1c0.3,1.2,0.9,2.3,1.6,3.2
				c0.9,1.1,1.9,2.1,3,2.9c1.3,0.9,2.8,2,4.6,3.2c1.8,1.2,3.7,2.5,5.7,3.9s3.9,3.1,5.5,4.9c1.7,2,3.2,4.3,4.2,6.7
				C278.3,63.7,278.9,66.7,278.8,69.7z"/>
			<path class="st0" d="M305,34.1c2.1,0,4.2,0.3,6.3,0.8c1.8,0.5,3.5,1.2,5,2.2l-1.1,7.8c-1.5-0.8-3-1.5-4.7-1.9
				c-1.6-0.4-3.2-0.7-4.9-0.7c-4.2-0.2-8.1,2-10,5.5c-2.2,3.7-3.2,8.5-3.2,14.4s1.1,10.7,3.2,14.4c1.9,3.6,5.8,5.7,10,5.6
				c1.7,0,3.3-0.2,4.9-0.7c1.6-0.4,3.2-1.1,4.7-1.9l1.1,7.8c-1.6,1-3.4,1.7-5.3,2.2c-2,0.5-4,0.8-6,0.8c-3.1,0.1-6.2-0.7-8.8-2.2
				c-2.6-1.5-4.7-3.6-6.3-6.1c-1.8-2.8-3-5.8-3.8-9c-1.7-7.1-1.7-14.4,0-21.5c0.7-3.2,2-6.2,3.8-9c1.6-2.5,3.7-4.5,6.3-6.1
				C298.8,34.9,301.9,34.1,305,34.1z"/>
			<path class="st0" d="M348.1,43.6h-1.9c-2.7-0.1-5.4,0.7-7.7,2.2c-2.1,1.5-4,3.9-5.5,7.3v36h-7.5V35.3h7.2v10.3
				c0.8-3,2.4-5.8,4.6-8.2c2-1.9,4.8-2.9,7.7-2.8c1.1,0,2.1,0.2,3.1,0.6L348.1,43.6z"/>
			<path class="st0" d="M378.3,82.4c-0.7,1-1.4,2-2.3,2.9c-0.9,1-1.9,1.8-3.1,2.5c-1.2,0.8-2.4,1.4-3.8,1.8s-2.8,0.7-4.3,0.7
				c-1.6,0-3.2-0.4-4.6-1.1s-2.6-1.7-3.6-3c-1.1-1.4-1.9-3-2.4-4.7c-0.6-2-0.9-4.1-0.9-6.2c0-4.9,1.3-8.7,3.9-11.2
				c2.8-2.6,6.5-4.2,10.4-4.3c1.8-0.2,3.6-0.3,5.3-0.3c1.8-0.1,3.4-0.1,5.1-0.1V57c0-4.6-0.7-8.1-2.2-10.7c-1.5-2.6-3.9-3.9-7.2-3.9
				c-1.9,0-3.8,0.4-5.6,1.1c-1.8,0.7-3.5,1.6-5.1,2.8l-1.8-7.4c1.9-1.6,4.1-2.8,6.5-3.6c2.3-0.7,4.8-1,7.2-1
				c4.6-0.1,8.9,2.1,11.3,5.8c2.8,3.9,4.2,9.4,4.2,16.7v32.4h-7.4L378.3,82.4z M367.1,82.9c2.2,0,4.4-0.7,6.1-2c2-1.4,3.6-3.1,4.9-5
				v-10l-4.7,0.5c-1.5,0.1-2.9,0.3-4.4,0.6c-1.1,0.1-2.2,0.4-3.3,0.8c-1,0.3-1.9,0.9-2.7,1.5c-0.8,0.7-1.4,1.5-1.8,2.5
				c-0.4,1.2-0.7,2.4-0.6,3.6c0,2.5,0.6,4.4,1.7,5.7C363.6,82.3,365.3,83,367.1,82.9L367.1,82.9z"/>
			<path class="st0" d="M393.1,35.3h7.2V21.5h7.5v13.8H421v8.2h-13.2V71c0,1.5,0.1,3,0.2,4.4c0.1,1.2,0.4,2.4,0.9,3.5
				c0.4,0.9,1,1.7,1.8,2.3c0.9,0.6,2,0.9,3.1,0.9c2.2,0,4.4-0.5,6.4-1.5l0.7,7.6c-1.2,0.6-2.5,1.1-3.8,1.4c-1.6,0.4-3.2,0.6-4.8,0.6
				c-1.9,0.1-3.9-0.4-5.5-1.4s-2.9-2.3-3.7-3.9c-1-1.9-1.8-3.9-2.1-6c-0.5-2.5-0.7-5.1-0.7-7.6V43.6h-7.2L393.1,35.3L393.1,35.3z"/>
			<path class="st0" d="M447.1,34.1c2.1,0,4.2,0.3,6.3,0.8c1.8,0.5,3.5,1.2,5,2.2l-1.1,7.8c-1.5-0.8-3-1.5-4.6-1.9s-3.2-0.7-4.9-0.7
				c-4.2-0.2-8.1,2-10,5.5c-2.2,3.7-3.2,8.5-3.2,14.4s1.1,10.7,3.2,14.4c1.9,3.5,5.8,5.7,10,5.5c1.7,0,3.3-0.2,4.9-0.7
				c1.6-0.4,3.2-1.1,4.6-1.9l1.1,7.8c-1.6,1-3.4,1.8-5.3,2.2c-2,0.5-4,0.8-6,0.8c-3.1,0.1-6.2-0.7-8.8-2.2c-2.6-1.5-4.7-3.6-6.3-6.1
				c-1.8-2.8-3-5.8-3.8-9c-1.7-7.1-1.7-14.4,0-21.5c0.7-3.2,2-6.2,3.8-9c1.6-2.5,3.7-4.5,6.3-6.1C441,34.9,444,34.1,447.1,34.1z"/>
			<path class="st0" d="M467.6,89.1V10h7.5v32.1c1.4-2.3,3.2-4.3,5.4-5.9c2.1-1.4,4.5-2.1,7-2c2.3,0,4.6,0.7,6.4,2.1
				c1.9,1.6,3.4,3.6,4.4,5.8c1.3,2.7,2.1,5.6,2.5,8.5c0.6,3.4,0.8,6.8,0.8,10.3v28.3h-7.5v-28c0-2.5-0.1-5.1-0.5-7.6
				c-0.3-2-0.8-4-1.6-5.9c-0.6-1.5-1.6-2.8-2.9-3.9c-1.2-0.9-2.7-1.4-4.3-1.4c-2.2,0-4.4,0.8-5.9,2.4c-1.6,1.4-3,3.1-4.1,4.9v39.5
				L467.6,89.1L467.6,89.1z"/>
		</g>
	</g>
	<g>
		<ellipse class="st1" cx="21.7" cy="20.2" rx="3.4" ry="3.4"/>
		<ellipse class="st0" cx="21.7" cy="20.2" rx="1.9" ry="1.9"/>
	</g>
</g>
</svg>
