<?xml version="1.0" encoding="utf-8"?>
<!-- Generator: Adobe Illustrator 22.0.1, SVG Export Plug-In . SVG Version: 6.00 Build 0)  -->
<svg version="1.1" id="レイヤー_1" xmlns="http://www.w3.org/2000/svg" xmlns:xlink="http://www.w3.org/1999/xlink" x="0px"
	 y="0px" viewBox="0 0 171.8 140.7" style="enable-background:new 0 0 171.8 140.7;" xml:space="preserve">
<style type="text/css">
	.st0{fill:none;stroke:#FFFFFF;stroke-width:0.5;stroke-miterlimit:10;}
	.st1{fill:#C4BD39;}
	.st2{fill:#AA7013;}
	.st3{fill:#A3291C;}
	.st4{fill:#3D1670;}
	.st5{fill:#162C9B;}
	.st6{fill:#1167A8;}
	.st7{fill:#0F602F;}
	.st8{fill:#4EB716;}
	.st9{fill:#AFAB22;}
	.st10{fill:#FFFFFF;stroke:#231815;stroke-width:0.5;stroke-miterlimit:10;}
	.st11{fill:#274BE0;stroke:#231815;stroke-width:0.25;stroke-miterlimit:10;}
	.st12{fill:#D87D19;}
	.st13{fill:#4700B9;}
	.st14{fill:#D82B2B;}
	.st15{fill:#E7D400;}
	.st16{fill:#09702B;stroke:#FFFFFF;stroke-width:0.5;stroke-miterlimit:10;}
	.st17{fill:#FFFFFF;}
</style>
<title>Fm-index-logo</title>
<g>
	<g>
		<path class="st0" d="M22.4,89.8c9.1-0.1,9.1,5.9,18.2,5.9c9.1-0.1,9-6.1,18.1-6.1c9.1-0.1,9.1,5.9,18.2,5.9
			c9.1-0.1,9-6.1,18.1-6.1c9.1-0.1,9.1,5.9,18.2,5.9c9.1-0.1,9-6.1,18.1-6.1c9.1-0.1,9.1,5.9,18.2,5.9"/>
	</g>
	<g>
		<g>
			<path class="st1" d="M0.2,140.3V108h13.9v3.6H3.7v11.1h10v3.6h-10v14L0.2,140.3L0.2,140.3z"/>
			<path class="st2" d="M37.8,120c-1,0-1.9,0.4-2.6,1.1c-0.9,0.8-1.6,1.7-2.1,2.6c0.2,1.4,0.3,2.9,0.3,4.3v12.3H30v-12.1
				c0-1.1,0-2.2-0.2-3.3c-0.1-0.9-0.3-1.7-0.6-2.6c-0.3-0.6-0.6-1.2-1.2-1.7c-0.5-0.4-1.2-0.6-1.8-0.6c-1,0-1.9,0.4-2.6,1
				s-1.3,1.4-1.8,2.1v17.1h-3.3v-23.3h3.2v3.4c0.6-1.1,1.4-2.1,2.4-2.9c0.9-0.7,2.1-1.1,3.3-1c1.2,0,2.3,0.4,3.1,1.2
				c0.9,1,1.6,2.1,2,3.3c0.6-1.3,1.5-2.4,2.6-3.4c1.1-0.8,2.4-1.2,3.7-1.2c1.1,0,2.1,0.3,2.9,0.9c0.8,0.7,1.5,1.5,1.9,2.5
				c0.5,1.2,0.9,2.4,1.1,3.7c0.2,1.5,0.3,2.9,0.3,4.4v12.3h-3.3V128c0-1.1,0-2.2-0.2-3.3c-0.1-0.9-0.3-1.7-0.6-2.6
				c-0.3-0.6-0.6-1.2-1.2-1.7C39.1,120.2,38.4,120,37.8,120z"/>
			<path class="st3" d="M72.7,131.9c0,1.3-0.2,2.6-0.7,3.7c-0.4,1.1-1.1,2-1.8,2.8c-0.8,0.8-1.7,1.4-2.7,1.8
				c-1.1,0.4-2.2,0.6-3.4,0.6c-1.2,0-2.5-0.2-3.6-0.5c-1.2-0.3-2.4-0.8-3.4-1.4l0.7-3.5c0.9,0.6,2,1,3,1.4c1.1,0.3,2.2,0.5,3.3,0.5
				c1.4,0,2.9-0.5,3.9-1.4s1.5-2.2,1.5-3.8c0-0.8-0.1-1.6-0.4-2.4c-0.3-0.6-0.7-1.3-1.2-1.8s-1.1-1-1.7-1.4s-1.4-0.9-2.1-1.3
				c-0.8-0.5-1.7-1.1-2.4-1.6c-0.8-0.6-1.5-1.2-2.1-2s-1.1-1.6-1.4-2.5c-0.4-1.1-0.6-2.1-0.5-3.2c0-1.2,0.2-2.5,0.6-3.7
				c0.3-1,0.9-1.9,1.6-2.7c0.7-0.7,1.5-1.2,2.5-1.6s2.1-0.6,3.2-0.5c2.3,0,4.6,0.7,6.4,2l-0.6,3.5c-0.8-0.6-1.7-1-2.7-1.4
				c-1-0.3-2-0.5-3.1-0.5c-3,0-4.5,1.5-4.5,4.6c0,0.6,0.1,1.2,0.2,1.8c0.2,0.5,0.4,1,0.7,1.4c0.4,0.5,0.8,0.9,1.4,1.2
				c0.6,0.4,1.2,0.9,2,1.4s1.6,1.1,2.5,1.7s1.7,1.4,2.4,2.1c0.8,0.9,1.4,1.8,1.8,2.9C72.5,129.2,72.7,130.6,72.7,131.9z"/>
			<path class="st4" d="M84.3,116.4c0.9,0,1.9,0.1,2.8,0.3c0.8,0.2,1.5,0.5,2.2,0.9l-0.5,3.4c-0.6-0.3-1.4-0.6-2.1-0.8
				c-0.7-0.2-1.4-0.3-2.2-0.3c-1.8-0.1-3.6,0.9-4.4,2.4c-0.9,1.6-1.4,3.7-1.4,6.2s0.5,4.6,1.4,6.2c0.8,1.5,2.6,2.5,4.4,2.4
				c0.7,0,1.5-0.1,2.2-0.3s1.4-0.5,2.1-0.8l0.5,3.4c-0.7,0.5-1.5,0.8-2.3,0.9c-0.9,0.2-1.8,0.3-2.7,0.3c-1.4,0-2.7-0.3-3.9-1
				c-1.1-0.7-2.1-1.6-2.8-2.6c-0.8-1.2-1.4-2.5-1.7-3.9c-0.8-3-0.8-6.2,0-9.3c0.3-1.4,0.9-2.7,1.7-3.9c0.7-1.1,1.7-2,2.8-2.6
				C81.6,116.8,82.9,116.4,84.3,116.4z"/>
			<path class="st5" d="M103.4,120.6h-0.9c-1.2,0-2.4,0.3-3.4,1c-0.9,0.6-1.8,1.7-2.4,3.2v15.6h-3.3v-23.3h3.2v4.5
				c0.4-1.3,1.1-2.5,2.1-3.5c0.9-0.8,2.1-1.3,3.4-1.2c0.5,0,0.9,0.1,1.4,0.2L103.4,120.6z"/>
			<path class="st6" d="M116.8,137.3c-0.3,0.5-0.6,0.9-1,1.2c-0.4,0.4-0.9,0.8-1.4,1.1s-1.1,0.6-1.7,0.8s-1.3,0.3-1.9,0.3
				c-0.7,0-1.4-0.2-2-0.5s-1.2-0.8-1.6-1.3c-0.5-0.6-0.8-1.3-1.1-2c-0.3-0.9-0.4-1.8-0.4-2.7c0-2.1,0.6-3.8,1.7-4.9
				c1.2-1.1,2.9-1.8,4.6-1.9c0.8-0.1,1.6-0.1,2.4-0.2c0.8,0,1.5,0,2.3,0v-1c0-2-0.3-3.5-1-4.6c-0.6-1.1-1.7-1.7-3.2-1.7
				c-0.9,0-1.7,0.2-2.5,0.5s-1.5,0.7-2.3,1.2l-0.8-3.2c0.8-0.7,1.8-1.2,2.9-1.5s2.1-0.5,3.2-0.5c2,0,3.9,0.9,5,2.5
				c1.2,1.7,1.9,4.1,1.9,7.2v14h-3.3L116.8,137.3z M111.8,137.6c1,0,1.9-0.3,2.7-0.9c0.9-0.6,1.6-1.3,2.2-2.1v-4.3l-2.1,0.2
				c-0.6,0.1-1.3,0.2-1.9,0.2c-0.5,0.1-1,0.2-1.5,0.3c-0.5,0.2-0.8,0.4-1.2,0.6c-0.3,0.3-0.6,0.7-0.8,1.1c-0.2,0.5-0.3,1.1-0.3,1.6
				c0,1.1,0.2,1.9,0.8,2.4C110.3,137.3,111,137.6,111.8,137.6L111.8,137.6z"/>
			<path class="st7" d="M123.3,116.9h3.2V111h3.3v6h5.9v3.5h-5.8v11.9c0,0.6,0,1.3,0.1,1.9c0,0.5,0.2,1.1,0.4,1.5s0.5,0.8,0.8,1
				c0.4,0.3,0.9,0.4,1.4,0.4c1,0,2-0.2,2.8-0.6l0.3,3.3c-0.5,0.3-1.1,0.5-1.7,0.6c-0.7,0.2-1.4,0.3-2.1,0.3c-0.9,0-1.7-0.2-2.4-0.6
				c-0.7-0.4-1.3-1-1.7-1.7c-0.5-0.8-0.8-1.7-0.9-2.6c-0.2-1.1-0.3-2.2-0.3-3.3v-12h-3.2L123.3,116.9L123.3,116.9z"/>
			<path class="st8" d="M147.2,116.4c0.9,0,1.9,0.1,2.8,0.3c0.8,0.2,1.5,0.5,2.2,0.9l-0.5,3.4c-0.6-0.3-1.3-0.6-2.1-0.8
				c-0.7-0.2-1.4-0.3-2.2-0.3c-1.8-0.1-3.6,0.9-4.4,2.4c-0.9,1.6-1.4,3.7-1.4,6.2s0.5,4.6,1.4,6.2c0.8,1.5,2.6,2.5,4.4,2.4
				c0.8,0,1.5-0.1,2.2-0.3s1.4-0.5,2.1-0.8l0.5,3.4c-0.7,0.5-1.5,0.8-2.3,0.9c-0.9,0.2-1.8,0.3-2.7,0.3c-1.4,0-2.7-0.3-3.9-1
				c-1.1-0.7-2.1-1.6-2.8-2.6c-0.8-1.2-1.4-2.5-1.7-3.9c-0.8-3-0.8-6.2,0-9.3c0.3-1.4,0.9-2.7,1.7-3.9c0.7-1.1,1.7-2,2.8-2.6
				C144.5,116.8,145.9,116.4,147.2,116.4z"/>
			<path class="st9" d="M156.3,140.3V106h3.3v13.9c0.6-1,1.4-1.9,2.4-2.6c0.9-0.6,2-0.9,3.1-0.9s2.1,0.3,2.9,0.9
				c0.9,0.7,1.5,1.5,2,2.5c0.6,1.2,0.9,2.4,1.1,3.7c0.3,1.5,0.4,3,0.4,4.4v12.3h-3.3V128c0-1.1-0.1-2.2-0.2-3.3
				c-0.1-0.9-0.3-1.7-0.7-2.6c-0.3-0.6-0.7-1.2-1.3-1.7c-0.5-0.4-1.2-0.6-1.9-0.6c-1,0-1.9,0.4-2.6,1c-0.7,0.6-1.3,1.4-1.8,2.1V140
				L156.3,140.3L156.3,140.3z"/>
		</g>
		<path class="st10" d="M45.9,23.2c0.4-1.7,1.1-3.4,1.8-5c1.9-4.8,5.4-8.8,9.8-11.3c4.8-2.5,11-5.2,16.5-5.7
			C79.5,0.7,84.9-0.6,91.7,1c5.7,1.3,8,1.9,12.1,5.9c0,0,14.1-5.6,25.9-3.7c1.6,0.1,3.2,0.6,4.6,1.5c2.2,1.4-0.7,4.5-0.7,4.5
			s-12.5,9-13.4,12.8c3.9,5.9,6.2,12.8,6.7,19.9c0.4,11.2-4.2,22.5-4.2,22.5s-8.7,15-15.5,17.7c0,0,9.3,10-0.1,23.7
			c0,0,1.3-3.8-2.7-10.5c-2.4-4.2-6.7-7.2-11.4-8c-1.5-0.2-8.3-1.2-10.9,1.5c0,0,5.2-7.2,9.7-8.6s7.8-1.4,9.6-0.7c0,0,3-8.5,3-11.9
			s-0.7-11.9-2.9-15.4C99.4,48.7,97,43,95,42.6c-1.8,2.3-3.1,5-3.8,7.7c0,0-1.1,2.6-1.8,5c-0.7,2.3-1.6,2.2-2.7,2
			c-1.2-0.2-4-6.7-4.3-8.6s-1.6-10.2-1.8-12.5c0,0-2.1-0.3-8.7-1c-6.5-0.6-10.7,0.2-15.3,0.6S41.8,38,39.5,37.6
			c-1.2,0-2.1-0.5-2.7-1.5C35.4,33.8,45.9,23.2,45.9,23.2z"/>
		<circle class="st11" cx="26.6" cy="53" r="2.5"/>
		<circle class="st12" cx="135.7" cy="45.7" r="2.5"/>
		<circle class="st13" cx="140.8" cy="78.5" r="2.5"/>
		<circle class="st14" cx="61.4" cy="61.6" r="2.5"/>
		<circle class="st15" cx="42.4" cy="78.5" r="2.5"/>
		<g>
			<ellipse class="st16" cx="58" cy="20.2" rx="3.4" ry="3.4"/>
			<ellipse class="st17" cx="58" cy="20.2" rx="2.4" ry="2.4"/>
		</g>
	</g>
</g>
</svg>
