<?xml version="1.0" encoding="utf-8"?>
<!-- Generator: Adobe Illustrator 22.0.1, SVG Export Plug-In . SVG Version: 6.00 Build 0)  -->
<svg version="1.1" id="レイヤー_1" xmlns="http://www.w3.org/2000/svg" xmlns:xlink="http://www.w3.org/1999/xlink" x="0px"
	 y="0px" viewBox="0 0 268.2 43.3" style="enable-background:new 0 0 268.2 43.3;" xml:space="preserve">
<style type="text/css">
	.st0{fill:#4F4F4F;}
</style>
<title>scratch-font-logo</title>
<g id="レイヤー_2_1_">
	<g id="レイヤー_1-2">
		<path class="st0" d="M0,2.2h21.8v4.4H5.2V20h15.3v4.3H5.2v18.3H0V2.2z"/>
		<path class="st0" d="M29,21.4c0-3-0.1-5.4-0.2-7.8h4.6l0.3,4.7h0.2c1.8-3.4,5.4-5.5,9.2-5.3c3.7,0,7,2.3,8.2,5.8h0.1
			c0.8-1.5,1.9-2.7,3.2-3.7c1.8-1.4,4.1-2.1,6.4-2c3.9,0,9.6,2.5,9.6,12.6v17h-5.2V26.2c0-5.6-2.1-9-6.3-9c-2.9,0.1-5.4,2-6.3,4.8
			c-0.3,0.9-0.4,1.7-0.4,2.6v18h-5.1V25.2c0-4.6-2-8-6-8c-3.3,0-5.7,2.6-6.6,5.3c-0.3,0.8-0.4,1.7-0.4,2.6v17.5H29V21.4z"/>
		<path class="st0" d="M91.3,36.2c2.8,1.7,6,2.6,9.3,2.6c5.3,0,8.5-2.8,8.5-6.9c0-3.8-2.2-6-7.7-8c-6.6-2.3-10.7-5.8-10.7-11.5
			c0-6.3,5.2-11,13.1-11c3.1-0.1,6.2,0.6,8.9,2l-1.5,4.3c-2.3-1.3-5-2-7.6-1.9c-5.6,0-7.7,3.3-7.7,6c0,3.8,2.5,5.6,8,7.8
			c6.9,2.7,10.3,6,10.3,11.9c0,6.2-4.6,11.7-14.2,11.7c-3.9,0-8.2-1.2-10.3-2.6L91.3,36.2z"/>
		<path class="st0" d="M142.1,41.5c-2.6,1.2-5.5,1.7-8.3,1.7c-8.8,0-14.5-6-14.5-14.8s6.1-15.5,15.6-15.5c2.5,0,5,0.5,7.3,1.6
			l-1.2,4.1c-1.9-1-4-1.5-6.2-1.4c-6.6,0-10.2,5-10.2,11c0,6.7,4.4,10.9,10.1,10.9c2.2,0,4.4-0.5,6.5-1.4L142.1,41.5z"/>
		<path class="st0" d="M148.2,22.6c0-3.4-0.1-6.4-0.2-9h4.6l0.2,5.7h0.2c1.4-3.9,4.6-6.4,8.1-6.4c0.5,0,1,0,1.5,0.1v5
			c-0.6-0.1-1.2-0.2-1.8-0.1c-3.7,0-6.3,2.8-7.1,6.8c-0.1,0.8-0.2,1.6-0.2,2.5v15.4h-5.3V22.6z"/>
		<path class="st0" d="M184,42.6l-0.5-3.7h-0.2c-2.1,2.8-5.4,4.4-8.9,4.3c-5.9,0-8.9-4.2-8.9-8.3c0-7,6.2-10.9,17.4-10.8v-0.6
			c0-2.4-0.7-6.7-6.6-6.7c-2.7,0-5.3,0.8-7.6,2.2l-1.2-3.5c2.9-1.7,6.2-2.6,9.6-2.6c8.9,0,11,6.1,11,11.9v10.8c0,2.3,0.1,4.7,0.4,7
			H184z M183.2,27.8c-5.7-0.1-12.2,0.9-12.2,6.5c-0.2,2.6,1.7,4.8,4.2,5c0.2,0,0.5,0,0.7,0c3.2,0.1,6-1.9,7.1-4.9
			c0.2-0.5,0.3-1.1,0.2-1.7V27.8z"/>
		<path class="st0" d="M203.2,5.2v8.4h7.6v4h-7.6v15.6c0,3.6,1,5.7,4,5.7c1,0,2.1-0.1,3.1-0.4l0.2,4c-1.5,0.5-3.1,0.8-4.7,0.7
			c-2.1,0.1-4.2-0.7-5.7-2.2c-1.5-1.6-2.1-4.2-2.1-7.6V17.6h-4.5v-4h4.5v-7L203.2,5.2z"/>
		<path class="st0" d="M237.4,41.5c-2.6,1.1-5.5,1.7-8.3,1.7c-8.8,0-14.5-6-14.5-14.8s6.1-15.5,15.6-15.5c2.5,0,5,0.5,7.3,1.6
			l-1.2,4c-1.9-1-4-1.5-6.2-1.4c-6.6,0-10.2,5-10.2,11c0,6.7,4.3,10.9,10.1,10.9c2.2,0,4.4-0.5,6.5-1.4L237.4,41.5z"/>
		<path class="st0" d="M243.6,0h5.2v18.1h0.1c0.9-1.5,2.2-2.8,3.8-3.7c1.6-1,3.5-1.5,5.4-1.5c3.9,0,10.1,2.4,10.1,12.4v17.3H263
			V25.9c0-4.7-1.8-8.6-6.7-8.6c-3.3,0.1-6.1,2.2-7.1,5.3c-0.3,0.8-0.4,1.7-0.4,2.5v17.5h-5.2L243.6,0L243.6,0z"/>
	</g>
</g>
</svg>
