<svg xmlns="http://www.w3.org/2000/svg" viewBox="0 0 268.2 43.22"><defs><style>.cls-1{fill:#e9e9e9;}</style></defs><title>fm-font-logo-index</title><g id="レイヤー_2" data-name="レイヤー 2"><g id="レイヤー_1-2" data-name="レイヤー 1"><g id="レイヤー_2-2" data-name="レイヤー 2"><g id="レイヤー_1-2-2" data-name="レイヤー 1-2"><path class="cls-1" d="M0,2.2H21.8V6.6H5.2V20H20.5v4.3H5.2V42.6H0Z"/><path class="cls-1" d="M29,21.4c0-3-.1-5.4-.2-7.8h4.6l.3,4.7h.2A9.9,9.9,0,0,1,43.1,13a8.62,8.62,0,0,1,8.2,5.8h.1a11.44,11.44,0,0,1,3.2-3.7,9.78,9.78,0,0,1,6.4-2c3.9,0,9.6,2.5,9.6,12.6v17H65.4V26.2c0-5.6-2.1-9-6.3-9A6.85,6.85,0,0,0,52.8,22a7.83,7.83,0,0,0-.4,2.6v18H47.3V25.2c0-4.6-2-8-6-8-3.3,0-5.7,2.6-6.6,5.3a7.46,7.46,0,0,0-.4,2.6V42.6H29Z"/><path class="cls-1" d="M91.3,36.2a17.88,17.88,0,0,0,9.3,2.6c5.3,0,8.5-2.8,8.5-6.9,0-3.8-2.2-6-7.7-8-6.6-2.3-10.7-5.8-10.7-11.5,0-6.3,5.2-11,13.1-11a18.17,18.17,0,0,1,8.9,2l-1.5,4.3a14.56,14.56,0,0,0-7.6-1.9c-5.6,0-7.7,3.3-7.7,6,0,3.8,2.5,5.6,8,7.8,6.9,2.7,10.3,6,10.3,11.9,0,6.2-4.6,11.7-14.2,11.7-3.9,0-8.2-1.2-10.3-2.6Z"/><path class="cls-1" d="M142.1,41.5a19.91,19.91,0,0,1-8.3,1.7c-8.8,0-14.5-6-14.5-14.8s6.1-15.5,15.6-15.5a16.87,16.87,0,0,1,7.3,1.6L141,18.6a12,12,0,0,0-6.2-1.4c-6.6,0-10.2,5-10.2,11,0,6.7,4.4,10.9,10.1,10.9a16.53,16.53,0,0,0,6.5-1.4Z"/><path class="cls-1" d="M148.2,22.6c0-3.4-.1-6.4-.2-9h4.6l.2,5.7h.2c1.4-3.9,4.6-6.4,8.1-6.4a7.57,7.57,0,0,1,1.5.1v5a5.46,5.46,0,0,0-1.8-.1c-3.7,0-6.3,2.8-7.1,6.8a19.48,19.48,0,0,0-.2,2.5V42.6h-5.3Z"/><path class="cls-1" d="M184,42.6l-.5-3.7h-.2a10.72,10.72,0,0,1-8.9,4.3c-5.9,0-8.9-4.2-8.9-8.3,0-7,6.2-10.9,17.4-10.8v-.6c0-2.4-.7-6.7-6.6-6.7a14.6,14.6,0,0,0-7.6,2.2l-1.2-3.5a18.94,18.94,0,0,1,9.6-2.6c8.9,0,11,6.1,11,11.9V35.6a54.77,54.77,0,0,0,.4,7Zm-.8-14.8c-5.7-.1-12.2.9-12.2,6.5a4.61,4.61,0,0,0,4.2,5h.7a7.33,7.33,0,0,0,7.1-4.9,3.21,3.21,0,0,0,.2-1.7Z"/><path class="cls-1" d="M203.2,5.2v8.4h7.6v4h-7.6V33.2c0,3.6,1,5.7,4,5.7a11,11,0,0,0,3.1-.4l.2,4a12.49,12.49,0,0,1-4.7.7,7.6,7.6,0,0,1-5.7-2.2c-1.5-1.6-2.1-4.2-2.1-7.6V17.6h-4.5v-4H198v-7Z"/><path class="cls-1" d="M237.4,41.5a21.62,21.62,0,0,1-8.3,1.7c-8.8,0-14.5-6-14.5-14.8s6.1-15.5,15.6-15.5a16.87,16.87,0,0,1,7.3,1.6l-1.2,4a12,12,0,0,0-6.2-1.4c-6.6,0-10.2,5-10.2,11,0,6.7,4.3,10.9,10.1,10.9a16.53,16.53,0,0,0,6.5-1.4Z"/><path class="cls-1" d="M243.6,0h5.2V18.1h.1a10.38,10.38,0,0,1,3.8-3.7,10.23,10.23,0,0,1,5.4-1.5c3.9,0,10.1,2.4,10.1,12.4V42.6H263V25.9c0-4.7-1.8-8.6-6.7-8.6a7.63,7.63,0,0,0-7.1,5.3,7.27,7.27,0,0,0-.4,2.5V42.6h-5.2V0Z"/></g></g></g></g></svg>