<svg xmlns="http://www.w3.org/2000/svg" viewBox="0 0 203.14 306.09"><defs><style>.cls-1,.cls-2{fill:#f7f7f7;}.cls-1{stroke:#fff;stroke-miterlimit:10;stroke-width:0.5px;}.cls-2{stroke:#727272;stroke-linecap:round;stroke-linejoin:round;stroke-width:6px;}</style></defs><title>scratch-logo-index</title><g id="レイヤー_2" data-name="レイヤー 2"><g id="レイヤー_1-2" data-name="レイヤー 1"><path class="cls-1" d="M169.87,61c-19.15-8.46-33.72-14.77-54.82-14.26-48.3,0-59.91,12.12-59.91,32.4,0,27.71,9.47,25.27,55.74,40.86,56,19.26,92,56.25,92,96.5,0,44.63-45,89.36-119.93,89.36-31.49,0-65.32-26.29-82.64-36.07l16.81-39.94c18.65,10,39.43,33.93,67.76,33.93,46.47,0,59.61-12.54,59.61-42.8,0-27.72-1.93-38.42-46.77-53.19-60.12-3.36-96.8-43.1-94-86.41C3.58,38.26,50.55.25,113.93.25c32.71,0,58,13.14,71.13,19.77Z"/><path class="cls-2" d="M4.6,182.85c.51.31.51-1.43.81-1.32s1,3.15,1.94,3.66c2.24,1.33,3-8.05,4.28-7.33s-2.55,6.31-2.55,6.31,2.45-8.25,4.28-7.33a22.3,22.3,0,0,1,3.16,3.06c.51.3,3.77-7.55,4.28-7.34a23,23,0,0,1,3.26,3.06c3.26,1.83,4.28-7.34,4.28-7.34l.51,4.58c1.63.92,3.06-7.94,4.28-7.33a45.12,45.12,0,0,0-1.33,5.3c.61.3,4.28-7.24,4.28-7.24,2.14,1.22-2.85,6-2.44,6.32s2.54-8.25,4.28-7.34c0,0,1.32,4,1.42,4.08,1.12.71,4.28-7.34,4.28-7.34,1.12.72-2.34,6.22-2.34,6.22s4-7.44,4.28-7.34-.31,4.89-.2,5l4.28-7.33c2.34,1.32-2.45,6.32-2.45,6.32,3.36,1.93,4.28-7.34,4.28-7.34,1.83,1.12-1.43,5.7-1.43,5.7l4.28-7.33,3.26,3s3.16-7.84,4.28-7.23l4.28,2.44L70.42,144c2.24,1.32-3.36,6-2.65,6.42,1.53.81,3.67-7.65,4.28-7.34s4.08,2.55,4.08,2.55l4.28-7.34,1.12,4.28c3,1.73,4.28-7.34,4.28-7.34,1.93,1.13-3.06,6.63-3.06,6.63L87,134.55c1.12.71-2.75,6.42-2.75,6.42l4.28-7.23c1.83,1-5.91,6.21-4.28,7.23l4.28-7.34c1.32.82,2,3.57,2.14,3.67C92.74,138.42,95,130,95,130l-1.53,5.8,4.28-7.33-4.18,6.62,4.28-7.34a22,22,0,0,0,1,4.28c2.85,1.63,2.24-8.56,4.28-7.33a59.48,59.48,0,0,0-2.44,6l4.28-7.34s1.12,3.57,1.73,3.87C108,128,111,120,111,120c1.93,1.12,4.28,2.24,4.28,2.24s3.36-7.74,4.28-7.34c0,0-5.51,5-3,6.63,1.22.71,4.28-7.34,4.28-7.34a26.37,26.37,0,0,0,1.73,3.87l4.28-7.33s-3,4.68-1.32,5.6c3.16,1.84,4.28-7.34,4.28-7.34l4.28,2.35c1.93,1.12,4.28-7.34,4.28-7.34,1.73,1,4.07,2.55,4.07,2.55s2.75-8.15,4.28-7.34c.51.31-1.63,3.77,0,4.79,3.16,1.84,4.28-7.33,4.28-7.33l3.16,3c.82.51,2.75-8.15,4.28-7.33s-2.34,5-1.32,5.6l4.28-7.23A8.41,8.41,0,0,0,164.07,94s3.46-7.75,4.28-7.24l4.28,2.45s.3-1.43.71-1.23"/><path class="cls-2" d="M11,205.78c.51.3.51-1.53.81-1.33s1,3.16,1.94,3.67c2.24,1.33,2.95-8.05,4.28-7.34s-2.65,6.32-2.65,6.32,2.44-8.25,4.28-7.33a22.23,22.23,0,0,1,3.16,3c.51.31,3.77-7.54,4.28-7.33a13.27,13.27,0,0,1,3.26,3c3.26,1.84,4.28-7.33,4.28-7.33l.51,4.58c1.63.92,3-7.95,4.28-7.34a46.16,46.16,0,0,0-.72,5.3c.61.31,4.28-7.33,4.28-7.33,2.14,1.22-2.85,6.11-2.44,6.31s2.54-8.25,4.28-7.33c0,0,1.32,4,1.42,4.07,1.12.72,4.28-7.33,4.28-7.33,1.12.61-2.34,6.21-2.34,6.21s4-7.44,4.28-7.23-.31,4.89-.21,5l4.28-7.34c2.35,1.33-2.44,6.32-2.44,6.32,3.36,1.94,4.28-7.33,4.28-7.33,1.83,1-1.43,5.7-1.43,5.7l4.28-7.33,3.26,3s3.16-7.85,4.28-7.34l4.28,2.45,4.28-7.34c2.24,1.23-3.36,5.91-2.65,6.42,1.53.82,3.67-7.64,4.28-7.33l4.08,2.44,4.28-7.23,1.12,4.28c3,1.73,4.28-7.24,4.28-7.24,1.93,1.12-3.06,6.62-3.06,6.62L94,157.48c1.12.71-2.75,6.42-2.75,6.42l4.28-7.24c1.83,1-5.91,6.22-4.28,7.24l4.28-7.34c1.32.82,2,3.57,2.14,3.67,2,1.12,4.28-7.34,4.28-7.34l-1.53,5.71,4.28-7.24-4.48,6.53,4.28-7.34s.51,4,1,4.28c2.86,1.63,2.25-8.56,4.28-7.24a66.23,66.23,0,0,0-2.34,6.22l4.28-7.34a19.17,19.17,0,0,0,1.73,3.88c1.43.81,4.28-7.34,4.28-7.34,1.94,1.12,4.28,2.34,4.28,2.34s3.36-7.84,4.28-7.33c0,0-5.5,5-3,6.52,1.22.71,4.28-7.24,4.28-7.24.51,1.33,1.12,2.65,1.73,3.87l4.28-7.23s-3,4.69-1.33,5.6c3.16,1.84,4.28-7.33,4.28-7.33l4.28,2.34c1.94,1.12,4.28-7.34,4.28-7.34,1.74,1,4.08,2.55,4.08,2.55s2.75-8.15,4.28-7.33c.51.3-1.63,3.77,0,4.78,3.16,1.84,4.28-7.33,4.28-7.33l3.16,3.05c.81.51,2.75-8.15,4.28-7.33s-2.35,5-1.33,5.6l4.28-7.33a9.54,9.54,0,0,0,2.65,3.36s3.47-7.75,4.28-7.34l4.28,2.45s.31-1.43.71-1.23"/><path class="cls-2" d="M30.38,219.53c.51.31.51-1.53.81-1.32s1,3.16,1.94,3.67c2.24,1.32,2.95-8,4.28-7.34s-2.65,6.32-2.65,6.32,2.44-8.26,4.28-7.34a22.86,22.86,0,0,1,3.16,3.06c.51.3,3.77-7.54,4.28-7.34a13.5,13.5,0,0,1,3.26,3.06C53,214.13,54,205,54,205l.51,4.59c1.63.91,3-8,4.28-7.34a45.87,45.87,0,0,0-.72,5.3c.61.31,4.28-7.34,4.28-7.34,2.14,1.23-2.85,6.12-2.44,6.32s2.54-8.25,4.28-7.34c0,0,1.32,4,1.42,4.08,1.12.71,4.28-7.34,4.28-7.34,1.12.61-2.34,6.22-2.34,6.22s4-7.44,4.28-7.24-.31,4.9-.2,5l4.27-7.34c2.35,1.33-2.44,6.32-2.44,6.32,3.36,1.93,4.28-7.34,4.28-7.34,1.83,1-1.43,5.71-1.43,5.71l4.28-7.34,3.26,3S87,185,88.15,185.5L92.43,188l4.28-7.34c2.24,1.22-3.36,5.91-2.65,6.42,1.53.81,3.67-7.64,4.28-7.34l4.08,2.45,4.28-7.24,1.12,4.28c3,1.73,4.28-7.23,4.28-7.23,1.93,1.12-3.06,6.62-3.06,6.62l4.28-7.34c1.12.72-2.75,6.42-2.75,6.42l4.28-7.23c1.83,1-5.91,6.21-4.28,7.23l4.28-7.33c1.32.81,2,3.56,2.14,3.67,2,1.12,4.28-7.34,4.28-7.34l-1.53,5.7,4.28-7.23-4.48,6.52,4.28-7.34s.51,4,1,4.28c2.85,1.64,2.24-8.55,4.28-7.23a63.62,63.62,0,0,0-2.35,6.22l4.28-7.34a19.09,19.09,0,0,0,1.73,3.87c1.43.82,4.28-7.34,4.28-7.34,1.94,1.13,4.28,2.35,4.28,2.35s3.37-7.85,4.28-7.34c0,0-5.5,5-3,6.52,1.22.72,4.28-7.23,4.28-7.23.51,1.32,1.12,2.65,1.73,3.87L153,147.7s-3,4.68-1.33,5.6c3.16,1.83,4.28-7.34,4.28-7.34l4.28,2.35c1.94,1.12,4.28-7.34,4.28-7.34,1.74,1,4.08,2.55,4.08,2.55s2.75-8.15,4.28-7.34c.51.31-1.63,3.77,0,4.79,3.16,1.83,4.28-7.34,4.28-7.34l3.16,3.06c.81.51,2.75-8.15,4.28-7.34s-2.35,5-1.33,5.61l4.28-7.34a9.36,9.36,0,0,0,2.65,3.36s3.47-7.74,4.28-7.33l4.28,2.44s.31-1.42.71-1.22"/></g></g></svg>