<?xml version="1.0" encoding="utf-8"?>
<!-- Generator: Adobe Illustrator 22.0.1, SVG Export Plug-In . SVG Version: 6.00 Build 0)  -->
<svg version="1.1" id="レイヤー_1" xmlns="http://www.w3.org/2000/svg" xmlns:xlink="http://www.w3.org/1999/xlink" x="0px"
	 y="0px" viewBox="0 0 362 362.2" style="enable-background:new 0 0 362 362.2;" xml:space="preserve">
<style type="text/css">
	.st0{fill:#D1D1D1;stroke:#E5E5E5;stroke-width:2;stroke-linecap:round;stroke-linejoin:round;}
	.st1{fill:url(#SVGID_1_);stroke:#FFFFFF;stroke-width:0.5;stroke-miterlimit:10;}
	.st2{fill:#494949;stroke:#727272;stroke-width:6;stroke-linecap:round;stroke-linejoin:round;}
</style>
<g>
	<circle class="st0" cx="180" cy="181.3" r="181.7"/>
	<g>
		
			<linearGradient id="SVGID_1_" gradientUnits="userSpaceOnUse" x1="294.3608" y1="252.5932" x2="47.7875" y2="110.2341" gradientTransform="matrix(1 0 0 -1 0 364)">
			<stop  offset="0" style="stop-color:#FFFFFF"/>
			<stop  offset="0" style="stop-color:#C3EDC7"/>
			<stop  offset="0.1331" style="stop-color:#9DD9A6"/>
			<stop  offset="0.2561" style="stop-color:#70C082"/>
			<stop  offset="0.4233" style="stop-color:#6BB97E"/>
			<stop  offset="0.5627" style="stop-color:#63B275"/>
			<stop  offset="0.7187" style="stop-color:#5BA56F"/>
			<stop  offset="0.8384" style="stop-color:#568E68"/>
			<stop  offset="0.9898" style="stop-color:#4E7B61"/>
		</linearGradient>
		<path class="st1" d="M242.8,89.2c-19.2-8.5-33.7-14.8-54.8-14.3c-48.3,0-59.9,12.1-59.9,32.4c0,27.7,9.5,25.3,55.7,40.9
			c56,19.3,92,56.2,92,96.5c0,44.6-45,89.4-119.9,89.4c-31.5,0-65.3-26.3-82.6-36.1l16.8-39.9c18.6,10,39.4,33.9,67.8,33.9
			c46.5,0,59.6-12.5,59.6-42.8c0-27.7-1.9-38.4-46.8-53.2c-60.1-3.4-96.8-43.1-94.1-86.4c-0.1-43.1,46.9-81.1,110.2-81.1
			c32.7,0,58,13.1,71.1,19.8L242.8,89.2z"/>
		<g>
			<path class="st2" d="M77.5,211.1c0.5,0.3,0.5-1.4,0.8-1.3c0.3,0.1,1,3.2,1.9,3.7c2.2,1.3,3-8,4.3-7.3s-2.5,6.3-2.5,6.3
				s2.4-8.3,4.3-7.3c1.1,0.9,2.2,1.9,3.2,3.1c0.5,0.3,3.8-7.5,4.3-7.3c1.2,0.9,2.2,1.9,3.3,3.1c3.3,1.8,4.3-7.3,4.3-7.3l0.5,4.6
				c1.6,0.9,3.1-7.9,4.3-7.3c-0.5,1.7-1,3.5-1.3,5.3c0.6,0.3,4.3-7.2,4.3-7.2c2.1,1.2-2.9,6-2.4,6.3s2.5-8.3,4.3-7.3
				c0,0,1.3,4,1.4,4.1c1.1,0.7,4.3-7.3,4.3-7.3c1.1,0.7-2.3,6.2-2.3,6.2s4-7.4,4.3-7.3c0.3,0.1-0.3,4.9-0.2,5l4.3-7.3
				c2.3,1.3-2.4,6.3-2.4,6.3c3.4,1.9,4.3-7.3,4.3-7.3c1.8,1.1-1.4,5.7-1.4,5.7l4.3-7.3l3.3,3c0,0,3.2-7.8,4.3-7.2l4.3,2.4l4.3-7.3
				c2.2,1.3-3.4,6-2.6,6.4c1.5,0.8,3.7-7.6,4.3-7.3s4.1,2.5,4.1,2.5l4.3-7.3l1.1,4.3c3,1.7,4.3-7.3,4.3-7.3c1.9,1.1-3.1,6.6-3.1,6.6
				l4.3-7.3c1.1,0.7-2.8,6.4-2.8,6.4l4.3-7.2c1.8,1-5.9,6.2-4.3,7.2l4.3-7.3c1.3,0.8,2,3.6,2.1,3.7c2,1.1,4.3-7.3,4.3-7.3l-1.5,5.8
				l4.3-7.3l-4.2,6.6l4.3-7.3c0.2,1.4,0.5,2.9,1,4.3c2.9,1.6,2.2-8.6,4.3-7.3c-0.9,1.9-1.7,4-2.4,6l4.3-7.3c0,0,1.1,3.6,1.7,3.9
				c1.3,0.8,4.3-7.2,4.3-7.2c1.9,1.1,4.3,2.2,4.3,2.2s3.4-7.7,4.3-7.3c0,0-5.5,5-3,6.6c1.2,0.7,4.3-7.3,4.3-7.3
				c0.5,1.3,1,2.6,1.7,3.9l4.3-7.3c0,0-3,4.7-1.3,5.6c3.2,1.8,4.3-7.3,4.3-7.3l4.3,2.3c1.9,1.1,4.3-7.3,4.3-7.3
				c1.7,1,4.1,2.5,4.1,2.5s2.8-8.2,4.3-7.3c0.5,0.3-1.6,3.8,0,4.8c3.2,1.8,4.3-7.3,4.3-7.3l3.2,3.1c0.8,0.5,2.8-8.2,4.3-7.3
				c1.5,0.8-2.3,5-1.3,5.6l4.3-7.2c0.6,1.3,1.5,2.4,2.6,3.3c0,0,3.5-7.7,4.3-7.2l4.3,2.4c0,0,0.3-1.4,0.7-1.2"/>
			<path class="st2" d="M83.9,234c0.5,0.3,0.5-1.5,0.8-1.3s1,3.2,1.9,3.7c2.2,1.3,3-8,4.3-7.3s-2.6,6.3-2.6,6.3s2.4-8.3,4.3-7.3
				c1.1,0.9,2.2,1.9,3.2,3.1c0.5,0.3,3.8-7.5,4.3-7.3c1.2,0.8,2.3,1.8,3.3,3.1c3.3,1.8,4.3-7.3,4.3-7.3l0.5,4.6
				c1.6,0.9,3.1-7.9,4.3-7.3c-0.3,1.7-0.6,3.6-0.7,5.3c0.6,0.3,4.3-7.3,4.3-7.3c2.1,1.2-2.9,6.1-2.4,6.3c0.4,0.2,2.5-8.3,4.3-7.3
				c0,0,1.3,4,1.4,4.1c1.1,0.7,4.3-7.3,4.3-7.3c1.1,0.6-2.3,6.2-2.3,6.2s4-7.4,4.3-7.2s-0.3,4.9-0.2,5l4.3-7.3
				c2.3,1.3-2.4,6.3-2.4,6.3c3.4,1.9,4.3-7.3,4.3-7.3c1.8,1-1.4,5.7-1.4,5.7l4.3-7.3l3.3,3c0,0,3.2-7.8,4.3-7.3l4.3,2.4l4.3-7.3
				c2.2,1.2-3.4,5.9-2.6,6.4c1.5,0.8,3.7-7.6,4.3-7.3l4.1,2.4l4.3-7.2l1.1,4.3c3,1.7,4.3-7.2,4.3-7.2c1.9,1.1-3.1,6.6-3.1,6.6
				l4.3-7.3c1.1,0.7-2.8,6.4-2.8,6.4l4.3-7.2c1.8,1-5.9,6.2-4.3,7.2l4.3-7.3c1.3,0.8,2,3.6,2.1,3.7c2,1.1,4.3-7.3,4.3-7.3l-1.5,5.7
				l4.3-7.2l-4.5,6.5l4.3-7.3c0,0,0.5,4,1,4.3c2.9,1.6,2.2-8.6,4.3-7.2c-0.9,2-1.6,4.1-2.3,6.2l4.3-7.3c0.4,1.3,1,2.6,1.7,3.9
				c1.4,0.8,4.3-7.3,4.3-7.3c1.9,1.1,4.3,2.3,4.3,2.3s3.4-7.8,4.3-7.3c0,0-5.5,5-3,6.5c1.2,0.7,4.3-7.2,4.3-7.2
				c0.5,1.3,1.1,2.6,1.7,3.9l4.3-7.2c0,0-3,4.7-1.3,5.6c3.2,1.8,4.3-7.3,4.3-7.3l4.3,2.3c1.9,1.1,4.3-7.3,4.3-7.3
				c1.7,1,4.1,2.5,4.1,2.5s2.8-8.2,4.3-7.3c0.5,0.3-1.6,3.8,0,4.8c3.2,1.8,4.3-7.3,4.3-7.3l3.2,3.1c0.8,0.5,2.8-8.2,4.3-7.3
				c1.5,0.8-2.3,5-1.3,5.6l4.3-7.3c0.6,1.3,1.5,2.4,2.6,3.4c0,0,3.5-7.7,4.3-7.3l4.3,2.4c0,0,0.3-1.4,0.7-1.2"/>
			<path class="st2" d="M103.3,247.8c0.5,0.3,0.5-1.5,0.8-1.3s1,3.2,1.9,3.7c2.2,1.3,3-8,4.3-7.3s-2.6,6.3-2.6,6.3s2.4-8.3,4.3-7.3
				c1.1,0.9,2.2,1.9,3.2,3.1c0.5,0.3,3.8-7.5,4.3-7.3c1.2,0.8,2.3,1.8,3.3,3.1c3.3,1.8,4.3-7.3,4.3-7.3l0.5,4.6
				c1.6,0.9,3.1-7.9,4.3-7.3c-0.3,1.7-0.6,3.6-0.7,5.3c0.6,0.3,4.3-7.3,4.3-7.3c2.1,1.2-2.9,6.1-2.4,6.3c0.4,0.2,2.5-8.3,4.3-7.3
				c0,0,1.3,4,1.4,4.1c1.1,0.7,4.3-7.3,4.3-7.3c1.1,0.6-2.3,6.2-2.3,6.2s4-7.4,4.3-7.2c0.3,0.2-0.3,4.9-0.2,5l4.3-7.3
				c2.3,1.3-2.4,6.3-2.4,6.3c3.4,1.9,4.3-7.3,4.3-7.3c1.8,1-1.4,5.7-1.4,5.7l4.3-7.3l3.3,3c0,0,3.2-7.8,4.3-7.3l4.3,2.4l4.3-7.3
				c2.2,1.2-3.4,5.9-2.6,6.4c1.5,0.8,3.7-7.6,4.3-7.3l4.1,2.4l4.3-7.2l1.1,4.3c3,1.7,4.3-7.2,4.3-7.2c1.9,1.1-3.1,6.6-3.1,6.6
				l4.3-7.3c1.1,0.7-2.8,6.4-2.8,6.4l4.3-7.2c1.8,1-5.9,6.2-4.3,7.2l4.3-7.3c1.3,0.8,2,3.6,2.1,3.7c2,1.1,4.3-7.3,4.3-7.3l-1.5,5.7
				l4.3-7.2l-4.5,6.5l4.3-7.3c0,0,0.5,4,1,4.3c2.9,1.6,2.2-8.6,4.3-7.2c-0.9,2-1.6,4.1-2.3,6.2l4.3-7.3c0.4,1.3,1,2.6,1.7,3.9
				c1.4,0.8,4.3-7.3,4.3-7.3c1.9,1.1,4.3,2.3,4.3,2.3s3.4-7.8,4.3-7.3c0,0-5.5,5-3,6.5c1.2,0.7,4.3-7.2,4.3-7.2
				c0.5,1.3,1.1,2.6,1.7,3.9l4.3-7.2c0,0-3,4.7-1.3,5.6c3.2,1.8,4.3-7.3,4.3-7.3l4.3,2.3c1.9,1.1,4.3-7.3,4.3-7.3
				c1.7,1,4.1,2.5,4.1,2.5s2.8-8.2,4.3-7.3c0.5,0.3-1.6,3.8,0,4.8c3.2,1.8,4.3-7.3,4.3-7.3l3.2,3.1c0.8,0.5,2.8-8.2,4.3-7.3
				c1.5,0.8-2.3,5-1.3,5.6l4.3-7.3c0.6,1.3,1.5,2.4,2.6,3.4c0,0,3.5-7.7,4.3-7.3l4.3,2.4c0,0,0.3-1.4,0.7-1.2"/>
		</g>
	</g>
</g>
</svg>
